solid
facet normal 0.0 0.0 1.0
 outer loop
  vertex 1.9999999999999822 1.0 0.0
  vertex 1.4999999999999876 1.0 0.0
  vertex 1.749999999998078 0.4930414223251891 0.0
 endloop
endfacet
facet normal 0.0 0.0 1.0
 outer loop
  vertex 2.999999999999985 1.0 0.0
  vertex 2.499999999999984 1.0 0.0
  vertex 2.749999999995912 0.4930414223249569 0.0
 endloop
endfacet
facet normal 0.0 0.0 1.0
 outer loop
  vertex 3.9999999999999876 1.0 0.0
  vertex 3.4999999999999867 1.0 0.0
  vertex 3.7499999999939657 0.4772363258924148 0.0
 endloop
endfacet
facet normal 0.0 0.0 1.0
 outer loop
  vertex 3.9999999999910267 0.0 0.0
  vertex 4.499999999991649 0.0 0.0
  vertex 4.249999999997211 0.510338941649693 0.0
 endloop
endfacet
facet normal 0.0 0.0 1.0
 outer loop
  vertex 0.9999999999999911 1.0 0.0
  vertex 0.49999999999999645 1.0 0.0
  vertex 0.7499999999993703 0.4330127018916335 0.0
 endloop
endfacet
facet normal 0.0 0.0 1.0
 outer loop
  vertex 8.99999999999849 0.0 0.0
  vertex 9.499999999999245 0.0 0.0
  vertex 9.25 0.5669872981077807 0.0
 endloop
endfacet
facet normal 0.0 0.0 1.0
 outer loop
  vertex 7.9999999999969775 0.0 0.0
  vertex 8.499999999997733 0.0 0.0
  vertex 8.249999999999368 0.5069585776746013 0.0
 endloop
endfacet
facet normal 0.0 0.0 1.0
 outer loop
  vertex 4.9999999999924105 0.0 0.0
  vertex 5.499999999993172 0.0 0.0
  vertex 5.249999999998276 0.50695857767508 0.0
 endloop
endfacet
facet normal 0.0 0.0 1.0
 outer loop
  vertex 5.999999999993932 0.0 0.0
  vertex 6.499999999994694 0.0 0.0
  vertex 6.249999999998639 0.5069585776749204 0.0
 endloop
endfacet
facet normal 0.0 0.0 1.0
 outer loop
  vertex 6.999999999995455 0.0 0.0
  vertex 7.499999999996216 0.0 0.0
  vertex 7.2499999999990035 0.5069585776747609 0.0
 endloop
endfacet
facet normal 0.0 0.0 1.0
 outer loop
  vertex 0.9999999999991893 0.0 0.0
  vertex 1.4999999999982851 0.0 0.0
  vertex 1.249999999998853 0.5187694232686569 0.0
 endloop
endfacet
facet normal 0.0 0.0 1.0
 outer loop
  vertex 1.9999999999968268 0.0 0.0
  vertex 2.499999999995368 0.0 0.0
  vertex 2.2499999999976916 0.49768047410835764 0.0
 endloop
endfacet
facet normal 0.0 0.0 1.0
 outer loop
  vertex 2.9999999999939098 0.0 0.0
  vertex 3.499999999992451 0.0 0.0
  vertex 3.2499999999952207 0.5110784171196949 0.0
 endloop
endfacet
facet normal 0.0 0.0 1.0
 outer loop
  vertex 8.999999999999998 1.0 0.0
  vertex 8.499999999999996 1.0 0.0
  vertex 8.749999999999623 0.4812305767315833 0.0
 endloop
endfacet
facet normal 0.0 0.0 1.0
 outer loop
  vertex 7.999999999999996 1.0 0.0
  vertex 7.499999999999995 1.0 0.0
  vertex 7.749999999998591 0.5023195258915603 0.0
 endloop
endfacet
facet normal 0.0 0.0 1.0
 outer loop
  vertex 6.999999999999994 1.0 0.0
  vertex 6.499999999999993 1.0 0.0
  vertex 6.7499999999979625 0.5023195258916135 0.0
 endloop
endfacet
facet normal 0.0 0.0 1.0
 outer loop
  vertex 5.999999999999991 1.0 0.0
  vertex 5.49999999999999 1.0 0.0
  vertex 5.749999999997333 0.5023195258916667 0.0
 endloop
endfacet
facet normal 0.0 0.0 1.0
 outer loop
  vertex 4.999999999999989 1.0 0.0
  vertex 4.4999999999999885 1.0 0.0
  vertex 4.749999999996588 0.5028829198874621 0.0
 endloop
endfacet
facet normal 0.0 0.0 1.0
 outer loop
  vertex 2.999999999999985 1.0 0.0
  vertex 2.749999999995912 0.4930414223249569 0.0
  vertex 3.2499999999952207 0.5110784171196949 0.0
 endloop
endfacet
facet normal 0.0 0.0 1.0
 outer loop
  vertex 1.9999999999999822 1.0 0.0
  vertex 1.749999999998078 0.4930414223251891 0.0
  vertex 2.2499999999976916 0.49768047410835764 0.0
 endloop
endfacet
facet normal 0.0 -0.0 1.0
 outer loop
  vertex 4.9999999999924105 0.0 0.0
  vertex 5.249999999998276 0.50695857767508 0.0
  vertex 4.749999999996588 0.5028829198874621 0.0
 endloop
endfacet
facet normal 0.0 0.0 1.0
 outer loop
  vertex 1.749999999998078 0.4930414223251891 0.0
  vertex 1.4999999999999876 1.0 0.0
  vertex 1.249999999998853 0.5187694232686569 0.0
 endloop
endfacet
facet normal 0.0 -0.0 1.0
 outer loop
  vertex 5.999999999993932 0.0 0.0
  vertex 6.249999999998639 0.5069585776749204 0.0
  vertex 5.749999999997333 0.5023195258916667 0.0
 endloop
endfacet
facet normal 0.0 0.0 1.0
 outer loop
  vertex 0.9999999999999911 1.0 0.0
  vertex 0.7499999999993703 0.4330127018916335 0.0
  vertex 1.249999999998853 0.5187694232686569 0.0
 endloop
endfacet
facet normal 0.0 0.0 1.0
 outer loop
  vertex 2.749999999995912 0.4930414223249569 0.0
  vertex 2.499999999999984 1.0 0.0
  vertex 2.2499999999976916 0.49768047410835764 0.0
 endloop
endfacet
facet normal 0.0 0.0 1.0
 outer loop
  vertex 3.7499999999939657 0.4772363258924148 0.0
  vertex 3.4999999999999867 1.0 0.0
  vertex 3.2499999999952207 0.5110784171196949 0.0
 endloop
endfacet
facet normal 0.0 -0.0 1.0
 outer loop
  vertex 6.999999999995455 0.0 0.0
  vertex 7.2499999999990035 0.5069585776747609 0.0
  vertex 6.7499999999979625 0.5023195258916135 0.0
 endloop
endfacet
facet normal 0.0 -0.0 1.0
 outer loop
  vertex 7.9999999999969775 0.0 0.0
  vertex 8.249999999999368 0.5069585776746013 0.0
  vertex 7.749999999998591 0.5023195258915603 0.0
 endloop
endfacet
facet normal 0.0 -0.0 1.0
 outer loop
  vertex 8.99999999999849 0.0 0.0
  vertex 9.25 0.5669872981077807 0.0
  vertex 8.749999999999623 0.4812305767315833 0.0
 endloop
endfacet
facet normal 0.0 0.0 1.0
 outer loop
  vertex 4.249999999997211 0.510338941649693 0.0
  vertex 4.499999999991649 0.0 0.0
  vertex 4.749999999996588 0.5028829198874621 0.0
 endloop
endfacet
facet normal 0.0 0.0 1.0
 outer loop
  vertex 8.249999999999368 0.5069585776746013 0.0
  vertex 8.499999999997733 0.0 0.0
  vertex 8.749999999999623 0.4812305767315833 0.0
 endloop
endfacet
facet normal 0.0 0.0 1.0
 outer loop
  vertex 7.2499999999990035 0.5069585776747609 0.0
  vertex 7.499999999996216 0.0 0.0
  vertex 7.749999999998591 0.5023195258915603 0.0
 endloop
endfacet
facet normal 0.0 0.0 1.0
 outer loop
  vertex 6.249999999998639 0.5069585776749204 0.0
  vertex 6.499999999994694 0.0 0.0
  vertex 6.7499999999979625 0.5023195258916135 0.0
 endloop
endfacet
facet normal 0.0 0.0 1.0
 outer loop
  vertex 5.249999999998276 0.50695857767508 0.0
  vertex 5.499999999993172 0.0 0.0
  vertex 5.749999999997333 0.5023195258916667 0.0
 endloop
endfacet
facet normal 0.0 0.0 1.0
 outer loop
  vertex 3.9999999999999876 1.0 0.0
  vertex 3.7499999999939657 0.4772363258924148 0.0
  vertex 4.249999999997211 0.510338941649693 0.0
 endloop
endfacet
facet normal -0.0 0.0 1.0
 outer loop
  vertex 3.7499999999939657 0.4772363258924148 0.0
  vertex 3.9999999999910267 0.0 0.0
  vertex 4.249999999997211 0.510338941649693 0.0
 endloop
endfacet
facet normal 0.0 -0.0 1.0
 outer loop
  vertex 1.4999999999982851 0.0 0.0
  vertex 1.749999999998078 0.4930414223251891 0.0
  vertex 1.249999999998853 0.5187694232686569 0.0
 endloop
endfacet
facet normal -0.0 0.0 1.0
 outer loop
  vertex 0.7499999999993703 0.4330127018916335 0.0
  vertex 0.9999999999991893 0.0 0.0
  vertex 1.249999999998853 0.5187694232686569 0.0
 endloop
endfacet
facet normal -0.0 0.0 1.0
 outer loop
  vertex 1.749999999998078 0.4930414223251891 0.0
  vertex 1.9999999999968268 0.0 0.0
  vertex 2.2499999999976916 0.49768047410835764 0.0
 endloop
endfacet
facet normal 0.0 -0.0 1.0
 outer loop
  vertex 2.499999999995368 0.0 0.0
  vertex 2.749999999995912 0.4930414223249569 0.0
  vertex 2.2499999999976916 0.49768047410835764 0.0
 endloop
endfacet
facet normal 0.0 0.0 1.0
 outer loop
  vertex 8.499999999999996 1.0 0.0
  vertex 8.249999999999368 0.5069585776746013 0.0
  vertex 8.749999999999623 0.4812305767315833 0.0
 endloop
endfacet
facet normal 0.0 0.0 1.0
 outer loop
  vertex 9.25 0.5669872981077807 0.0
  vertex 8.999999999999998 1.0 0.0
  vertex 8.749999999999623 0.4812305767315833 0.0
 endloop
endfacet
facet normal -0.0 0.0 1.0
 outer loop
  vertex 2.749999999995912 0.4930414223249569 0.0
  vertex 2.9999999999939098 0.0 0.0
  vertex 3.2499999999952207 0.5110784171196949 0.0
 endloop
endfacet
facet normal 0.0 -0.0 1.0
 outer loop
  vertex 3.499999999992451 0.0 0.0
  vertex 3.7499999999939657 0.4772363258924148 0.0
  vertex 3.2499999999952207 0.5110784171196949 0.0
 endloop
endfacet
facet normal 0.0 0.0 1.0
 outer loop
  vertex 7.499999999999995 1.0 0.0
  vertex 7.2499999999990035 0.5069585776747609 0.0
  vertex 7.749999999998591 0.5023195258915603 0.0
 endloop
endfacet
facet normal 0.0 0.0 1.0
 outer loop
  vertex 8.249999999999368 0.5069585776746013 0.0
  vertex 7.999999999999996 1.0 0.0
  vertex 7.749999999998591 0.5023195258915603 0.0
 endloop
endfacet
facet normal 0.0 0.0 1.0
 outer loop
  vertex 7.2499999999990035 0.5069585776747609 0.0
  vertex 6.999999999999994 1.0 0.0
  vertex 6.7499999999979625 0.5023195258916135 0.0
 endloop
endfacet
facet normal 0.0 0.0 1.0
 outer loop
  vertex 6.499999999999993 1.0 0.0
  vertex 6.249999999998639 0.5069585776749204 0.0
  vertex 6.7499999999979625 0.5023195258916135 0.0
 endloop
endfacet
facet normal 0.0 0.0 1.0
 outer loop
  vertex 5.49999999999999 1.0 0.0
  vertex 5.249999999998276 0.50695857767508 0.0
  vertex 5.749999999997333 0.5023195258916667 0.0
 endloop
endfacet
facet normal 0.0 0.0 1.0
 outer loop
  vertex 6.249999999998639 0.5069585776749204 0.0
  vertex 5.999999999999991 1.0 0.0
  vertex 5.749999999997333 0.5023195258916667 0.0
 endloop
endfacet
facet normal 0.0 0.0 1.0
 outer loop
  vertex 4.4999999999999885 1.0 0.0
  vertex 4.249999999997211 0.510338941649693 0.0
  vertex 4.749999999996588 0.5028829198874621 0.0
 endloop
endfacet
facet normal 0.0 0.0 1.0
 outer loop
  vertex 5.249999999998276 0.50695857767508 0.0
  vertex 4.999999999999989 1.0 0.0
  vertex 4.749999999996588 0.5028829198874621 0.0
 endloop
endfacet
facet normal 0.0 0.0 1.0
 outer loop
  vertex 0.7499999999993703 0.4330127018916335 0.0
  vertex 0.49999999999999645 1.0 0.0
  vertex 0.32872583307933534 0.6331588584186623 0.0
 endloop
endfacet
facet normal 0.0 0.0 1.0
 outer loop
  vertex 9.25 0.5669872981077807 0.0
  vertex 9.499999999999245 0.0 0.0
  vertex 9.671274166920387 0.36684114158138775 0.0
 endloop
endfacet
facet normal 0.0 0.0 1.0
 outer loop
  vertex 4.499999999991649 0.0 0.0
  vertex 4.9999999999924105 0.0 0.0
  vertex 4.749999999996588 0.5028829198874621 0.0
 endloop
endfacet
facet normal 0.0 0.0 1.0
 outer loop
  vertex 3.4999999999999867 1.0 0.0
  vertex 2.999999999999985 1.0 0.0
  vertex 3.2499999999952207 0.5110784171196949 0.0
 endloop
endfacet
facet normal 0.0 0.0 1.0
 outer loop
  vertex 5.499999999993172 0.0 0.0
  vertex 5.999999999993932 0.0 0.0
  vertex 5.749999999997333 0.5023195258916667 0.0
 endloop
endfacet
facet normal 0.0 0.0 1.0
 outer loop
  vertex 6.499999999994694 0.0 0.0
  vertex 6.999999999995455 0.0 0.0
  vertex 6.7499999999979625 0.5023195258916135 0.0
 endloop
endfacet
facet normal 0.0 0.0 1.0
 outer loop
  vertex 2.499999999999984 1.0 0.0
  vertex 1.9999999999999822 1.0 0.0
  vertex 2.2499999999976916 0.49768047410835764 0.0
 endloop
endfacet
facet normal 0.0 0.0 1.0
 outer loop
  vertex 7.499999999996216 0.0 0.0
  vertex 7.9999999999969775 0.0 0.0
  vertex 7.749999999998591 0.5023195258915603 0.0
 endloop
endfacet
facet normal 0.0 0.0 1.0
 outer loop
  vertex 1.4999999999999876 1.0 0.0
  vertex 0.9999999999999911 1.0 0.0
  vertex 1.249999999998853 0.5187694232686569 0.0
 endloop
endfacet
facet normal 0.0 0.0 1.0
 outer loop
  vertex 8.499999999997733 0.0 0.0
  vertex 8.99999999999849 0.0 0.0
  vertex 8.749999999999623 0.4812305767315833 0.0
 endloop
endfacet
facet normal 0.0 0.0 1.0
 outer loop
  vertex 4.4999999999999885 1.0 0.0
  vertex 3.9999999999999876 1.0 0.0
  vertex 4.249999999997211 0.510338941649693 0.0
 endloop
endfacet
facet normal 0.0 0.0 1.0
 outer loop
  vertex 0.49999999999955125 0.0 0.0
  vertex 0.9999999999991893 0.0 0.0
  vertex 0.7499999999993703 0.4330127018916335 0.0
 endloop
endfacet
facet normal 0.0 0.0 1.0
 outer loop
  vertex 5.49999999999999 1.0 0.0
  vertex 4.999999999999989 1.0 0.0
  vertex 5.249999999998276 0.50695857767508 0.0
 endloop
endfacet
facet normal 0.0 0.0 1.0
 outer loop
  vertex 9.499999999999998 1.0 0.0
  vertex 8.999999999999998 1.0 0.0
  vertex 9.25 0.5669872981077807 0.0
 endloop
endfacet
facet normal 0.0 0.0 1.0
 outer loop
  vertex 6.499999999999993 1.0 0.0
  vertex 5.999999999999991 1.0 0.0
  vertex 6.249999999998639 0.5069585776749204 0.0
 endloop
endfacet
facet normal 0.0 0.0 1.0
 outer loop
  vertex 8.499999999999996 1.0 0.0
  vertex 7.999999999999996 1.0 0.0
  vertex 8.249999999999368 0.5069585776746013 0.0
 endloop
endfacet
facet normal 0.0 0.0 1.0
 outer loop
  vertex 7.499999999999995 1.0 0.0
  vertex 6.999999999999994 1.0 0.0
  vertex 7.2499999999990035 0.5069585776747609 0.0
 endloop
endfacet
facet normal 0.0 0.0 1.0
 outer loop
  vertex 3.499999999992451 0.0 0.0
  vertex 3.9999999999910267 0.0 0.0
  vertex 3.7499999999939657 0.4772363258924148 0.0
 endloop
endfacet
facet normal 0.0 0.0 1.0
 outer loop
  vertex 1.4999999999982851 0.0 0.0
  vertex 1.9999999999968268 0.0 0.0
  vertex 1.749999999998078 0.4930414223251891 0.0
 endloop
endfacet
facet normal 0.0 0.0 1.0
 outer loop
  vertex 2.499999999995368 0.0 0.0
  vertex 2.9999999999939098 0.0 0.0
  vertex 2.749999999995912 0.4930414223249569 0.0
 endloop
endfacet
facet normal 0.0 0.0 1.0
 outer loop
  vertex 0.0 1.0 0.0
  vertex 0.0 0.5000000000020591 0.0
  vertex 0.32872583307933534 0.6331588584186623 0.0
 endloop
endfacet
facet normal 0.0 0.0 1.0
 outer loop
  vertex 0.49999999999999645 1.0 0.0
  vertex 0.0 1.0 0.0
  vertex 0.32872583307933534 0.6331588584186623 0.0
 endloop
endfacet
facet normal 0.0 -0.0 1.0
 outer loop
  vertex 10.0 0.0 0.0
  vertex 10.0 0.499999999998694 0.0
  vertex 9.671274166920387 0.36684114158138775 0.0
 endloop
endfacet
facet normal 0.0 0.0 1.0
 outer loop
  vertex 9.499999999999245 0.0 0.0
  vertex 10.0 0.0 0.0
  vertex 9.671274166920387 0.36684114158138775 0.0
 endloop
endfacet
facet normal 0.0 -0.0 1.0
 outer loop
  vertex 0.49999999999955125 0.0 0.0
  vertex 0.7499999999993703 0.4330127018916335 0.0
  vertex 0.2899060668611132 0.288991032403674 0.0
 endloop
endfacet
facet normal 0.0 0.0 1.0
 outer loop
  vertex 9.499999999999998 1.0 0.0
  vertex 9.25 0.5669872981077807 0.0
  vertex 9.710093933138502 0.7110089675964049 0.0
 endloop
endfacet
facet normal 0.0 0.0 1.0
 outer loop
  vertex 0.7499999999993703 0.4330127018916335 0.0
  vertex 0.32872583307933534 0.6331588584186623 0.0
  vertex 0.2899060668611132 0.288991032403674 0.0
 endloop
endfacet
facet normal -0.0 0.0 1.0
 outer loop
  vertex 9.25 0.5669872981077807 0.0
  vertex 9.671274166920387 0.36684114158138775 0.0
  vertex 9.710093933138502 0.7110089675964049 0.0
 endloop
endfacet
facet normal 0.0 0.0 1.0
 outer loop
  vertex 0.0 0.5000000000020591 0.0
  vertex 0.0 0.0 0.0
  vertex 0.2899060668611132 0.288991032403674 0.0
 endloop
endfacet
facet normal 0.0 -0.0 1.0
 outer loop
  vertex 10.0 0.499999999998694 0.0
  vertex 10.0 1.0 0.0
  vertex 9.710093933138502 0.7110089675964049 0.0
 endloop
endfacet
facet normal 0.0 0.0 1.0
 outer loop
  vertex 0.0 0.0 0.0
  vertex 0.49999999999955125 0.0 0.0
  vertex 0.2899060668611132 0.288991032403674 0.0
 endloop
endfacet
facet normal 0.0 0.0 1.0
 outer loop
  vertex 10.0 1.0 0.0
  vertex 9.499999999999998 1.0 0.0
  vertex 9.710093933138502 0.7110089675964049 0.0
 endloop
endfacet
facet normal 0.0 0.0 1.0
 outer loop
  vertex 0.32872583307933534 0.6331588584186623 0.0
  vertex 0.0 0.5000000000020591 0.0
  vertex 0.2899060668611132 0.288991032403674 0.0
 endloop
endfacet
facet normal 0.0 0.0 1.0
 outer loop
  vertex 9.671274166920387 0.36684114158138775 0.0
  vertex 10.0 0.499999999998694 0.0
  vertex 9.710093933138502 0.7110089675964049 0.0
 endloop
endfacet
endsolid
